<svg xmlns="http://www.w3.org/2000/svg" xmlns:xlink="http://www.w3.org/1999/xlink" viewBox="0 0 1432.18586 350.56278">
  <defs>
    <linearGradient id="Dégradé_sans_nom_17" data-name="Dégradé sans nom 17" x1="-5.32906" y1="113.14676" x2="303.91479" y2="291.68878" gradientUnits="userSpaceOnUse">
      <stop offset="0" stop-color="#f45776"/>
      <stop offset="1" stop-color="#990a27"/>
    </linearGradient>
  </defs>
  <g id="Calque_2" data-name="Calque 2">
    <g id="Calque_1-2" data-name="Calque 1">
      <path d="M284.04159,142.02083V317.14a33.4175,33.4175,0,0,1-33.42278,33.42278H33.42278A33.42581,33.42581,0,0,1,0,317.14V142.02083a142.0208,142.0208,0,1,1,284.04159,0Z" style="fill: url(#Dégradé_sans_nom_17)"/>
      <path d="M384.19741,106.00336c-3.658,0-5.26843-1.60917-5.26843-5.26716v-71.846H357.4194c-3.658,0-5.26716-1.61043-5.26716-5.26842V5.91716c0-3.658,1.60917-5.26843,5.26716-5.26843h77.26015c3.658,0,5.26716,1.61043,5.26716,5.26843V23.62177c0,3.658-1.60917,5.26842-5.26716,5.26842H413.17v71.846c0,3.658-1.61043,5.26716-5.26842,5.26716Z" style="fill: #fff"/>
      <path d="M459.40112,106.00336c-3.658,0-5.26716-1.60917-5.26716-5.26716V5.91716c0-3.658,1.60916-5.26843,5.26716-5.26843h22.68034c3.658,0,5.26843,1.61043,5.26843,5.26843V37.66964h24.43648V5.91716c0-3.658,1.60917-5.26843,5.26716-5.26843h22.68035c3.658,0,5.26716,1.61043,5.26716,5.26843v94.819c0,3.658-1.60917,5.26716-5.26716,5.26716H517.05353c-3.658,0-5.26716-1.60917-5.26716-5.26716V68.25136H487.34989V100.7362c0,3.658-1.61043,5.26716-5.26843,5.26716Z" style="fill: #fff"/>
      <path d="M409.70505,345.90392c-6.56973,0-9.45977-2.89-9.45977-9.45977V207.40945h-38.631c-6.56973,0-9.462-2.89232-9.462-9.46205V166.15011c0-6.56973,2.89232-9.46205,9.462-9.46205H500.37046c6.572,0,9.462,2.89232,9.462,9.46205V197.9474c0,6.56973-2.89,9.46205-9.462,9.46205h-38.631v129.0347c0,6.56973-2.89,9.45977-9.45977,9.45977Z" style="fill: #fff"/>
      <path d="M595.75551,345.90392c-44.14938,0-64.6482-17.08083-64.6482-53.61142v-81.729c0-36.79229,20.49882-53.8754,64.6482-53.8754h64.12254c6.572,0,9.462,2.89232,9.462,9.46205V197.9474c0,6.56973-2.89,9.46205-9.462,9.46205H607.05626c-11.03677,0-16.02949,4.20307-16.02949,13.13945v62.54552c0,8.67241,4.99272,12.61379,16.02949,12.61379h52.82179c6.572,0,9.462,2.89232,9.462,9.462v31.2739c0,6.56973-2.89,9.45977-9.462,9.45977Z" style="fill: #fff"/>
      <path d="M708.4831,345.90392c-6.56973,0-9.46205-2.89-9.46205-9.45977v-170.294c0-6.56973,2.89232-9.46205,9.46205-9.46205h40.73367c6.56972,0,9.45977,2.89232,9.45977,9.46205v57.02714h43.88768V166.15011c0-6.56973,2.89232-9.46205,9.462-9.46205h40.73367c6.56973,0,9.45977,2.89232,9.45977,9.46205v170.294c0,6.56973-2.89,9.45977-9.45977,9.45977H812.02626c-6.56972,0-9.462-2.89-9.462-9.45977V278.10171H758.67654v58.34244c0,6.56973-2.89005,9.45977-9.45977,9.45977Z" style="fill: #fff"/>
      <path d="M977.31166,349.8453c-65.69954,0-81.73131-21.54788-81.73131-53.61142V206.61981c0-32.06127,16.03177-53.87313,81.73131-53.87313s81.46734,21.81186,81.46734,53.87313v89.61407C1058.779,328.29742,1043.0112,349.8453,977.31166,349.8453Zm0-50.7191c19.18351,0,22.07355-5.2567,22.07355-12.35209V216.08185c0-6.8337-2.89-12.09039-22.07355-12.09039-18.92181,0-22.07583,5.25669-22.07583,12.09039v70.69226C955.23583,293.8695,958.38985,299.1262,977.31166,299.1262Z" style="fill: #fff"/>
      <path d="M1170.98092,349.8453c-65.69954,0-81.73132-21.54788-81.73132-53.61142V206.61981c0-32.06127,16.03178-53.87313,81.73132-53.87313s81.46733,21.81186,81.46733,53.87313v89.61407C1252.44825,328.29742,1236.68046,349.8453,1170.98092,349.8453Zm0-50.7191c19.18351,0,22.07355-5.2567,22.07355-12.35209V216.08185c0-6.8337-2.89-12.09039-22.07355-12.09039-18.92182,0-22.07583,5.25669-22.07583,12.09039v70.69226C1148.90509,293.8695,1152.0591,299.1262,1170.98092,299.1262Z" style="fill: #fff"/>
      <path d="M1294.74272,346.16676c-6.56973,0-9.45977-2.89005-9.45977-9.45977V305.95876c0-6.56973,2.89-9.462,9.45977-9.462H1365.435c4.46932,0,6.8337-3.41571,6.8337-7.62106,0-6.04406-2.36438-8.40843-6.8337-8.9341l-39.41836-5.51839c-24.70418-3.67968-40.73367-14.19079-40.73367-43.626V203.203c0-29.95859,20.23485-46.25206,54.39879-46.25206h73.58458c6.56972,0,9.45977,2.89232,9.45977,9.462v31.27163c0,6.56972-2.89005,9.462-9.45977,9.462h-61.23249c-4.467,0-7.0954,3.154-7.0954,7.88276,0,4.731,2.62835,7.885,7.0954,8.41071l39.15666,5.25442c24.7019,3.67968,40.99537,14.19306,40.99537,43.626V299.9147c0,29.95859-20.49655,46.25206-54.3988,46.25206Z" style="fill: #fff"/>
      <circle cx="142.02115" cy="142.01446" r="87.71581" style="fill: #fff"/>
      <circle cx="142.02115" cy="142.01446" r="33.41599" style="fill: #160424"/>
      <path d="M570.4537,106.00336c-3.65926,0-5.26842-1.60917-5.26842-5.26716V5.91716c0-3.658,1.60916-5.26843,5.26842-5.26843h67.894c3.658,0,5.26843,1.61043,5.26843,5.26843V23.03639c0,3.658-1.61043,5.26842-5.26843,5.26842h-40.385V39.5715h28.53289c3.658,0,5.26843,1.60916,5.26843,5.26842V60.4957c0,3.658-1.61043,5.26842-5.26843,5.26842H597.9628V78.34728h40.385c3.658,0,5.26843,1.61043,5.26843,5.26843V100.7362c0,3.658-1.61043,5.26716-5.26843,5.26716Z" style="fill: #fff"/>
    </g>
  </g>
</svg>
