<svg xmlns="http://www.w3.org/2000/svg" xmlns:xlink="http://www.w3.org/1999/xlink" viewBox="0 0 1920 1080">
  <defs>
    <linearGradient id="Dégradé_sans_nom_17" data-name="Dégradé sans nom 17" x1="238.57801" y1="477.86537" x2="547.82186" y2="656.40739" gradientUnits="userSpaceOnUse">
      <stop offset="0" stop-color="#f45776"/>
      <stop offset="1" stop-color="#990a27"/>
    </linearGradient>
  </defs>
  <g id="Calque_2" data-name="Calque 2">
    <g id="Calque_1-2" data-name="Calque 1">
      <rect width="1920" height="1080" style="fill: #4f0e81"/>
      <path d="M628.10448,470.722c-3.658,0-5.26842-1.60917-5.26842-5.26716v-71.846H601.32648c-3.658,0-5.26717-1.61043-5.26717-5.26842V370.63577c0-3.658,1.60917-5.26843,5.26717-5.26843h77.26014c3.658,0,5.26716,1.61043,5.26716,5.26843v17.70461c0,3.658-1.60917,5.26842-5.26716,5.26842H657.077v71.846c0,3.658-1.61043,5.26716-5.26843,5.26716Z" style="fill: #fff"/>
      <path d="M703.30819,470.722c-3.658,0-5.26716-1.60917-5.26716-5.26716v-94.819c0-3.658,1.60916-5.26843,5.26716-5.26843h22.68034c3.658,0,5.26843,1.61043,5.26843,5.26843v31.75248h24.43649V370.63577c0-3.658,1.60916-5.26843,5.26716-5.26843H783.641c3.658,0,5.26716,1.61043,5.26716,5.26843v94.819c0,3.658-1.60916,5.26716-5.26716,5.26716H760.96061c-3.658,0-5.26716-1.60917-5.26716-5.26716V432.97H731.257v32.48484c0,3.658-1.61043,5.26716-5.26843,5.26716Z" style="fill: #fff"/>
      <path d="M653.61212,710.62253c-6.56973,0-9.45977-2.89-9.45977-9.45977V572.12806h-38.631c-6.56973,0-9.462-2.89232-9.462-9.462V530.86872c0-6.56973,2.89232-9.46205,9.462-9.46205H744.27753c6.572,0,9.46205,2.89232,9.46205,9.46205V562.666c0,6.56973-2.89005,9.462-9.46205,9.462h-38.631v129.0347c0,6.56973-2.89,9.45977-9.45977,9.45977Z" style="fill: #fff"/>
      <path d="M839.66259,710.62253c-44.14939,0-64.64821-17.08083-64.64821-53.61142v-81.729c0-36.79229,20.49882-53.8754,64.64821-53.8754h64.12253c6.572,0,9.462,2.89232,9.462,9.46205V562.666c0,6.56973-2.89,9.462-9.462,9.462H850.96333c-11.03677,0-16.02949,4.20307-16.02949,13.13945V647.813c0,8.67241,4.99272,12.61379,16.02949,12.61379h52.82179c6.572,0,9.462,2.89232,9.462,9.462v31.2739c0,6.56973-2.89,9.45977-9.462,9.45977Z" style="fill: #fff"/>
      <path d="M952.39017,710.62253c-6.56973,0-9.462-2.89-9.462-9.45977v-170.294c0-6.56973,2.89231-9.46205,9.462-9.46205h40.73367c6.56973,0,9.45977,2.89232,9.45977,9.46205v57.02713h43.88768V530.86872c0-6.56973,2.89232-9.46205,9.46205-9.46205H1096.667c6.56972,0,9.45977,2.89232,9.45977,9.46205v170.294c0,6.56973-2.89,9.45977-9.45977,9.45977h-40.73367c-6.56973,0-9.46205-2.89-9.46205-9.45977V642.82031h-43.88768v58.34245c0,6.56973-2.89,9.45977-9.45977,9.45977Z" style="fill: #fff"/>
      <path d="M1221.21873,714.56391c-65.69954,0-81.73131-21.54788-81.73131-53.61142V571.33841c0-32.06126,16.03177-53.87312,81.73131-53.87312s81.46734,21.81186,81.46734,53.87312v89.61408C1302.68607,693.016,1286.91827,714.56391,1221.21873,714.56391Zm0-50.71911c19.18351,0,22.07356-5.25669,22.07356-12.35208V580.80046c0-6.8337-2.89005-12.09039-22.07356-12.09039-18.92181,0-22.07582,5.25669-22.07582,12.09039v70.69226C1199.14291,658.58811,1202.29692,663.8448,1221.21873,663.8448Z" style="fill: #fff"/>
      <path d="M1414.888,714.56391c-65.69954,0-81.73131-21.54788-81.73131-53.61142V571.33841c0-32.06126,16.03177-53.87312,81.73131-53.87312s81.46734,21.81186,81.46734,53.87312v89.61408C1496.35533,693.016,1480.58753,714.56391,1414.888,714.56391Zm0-50.71911c19.18351,0,22.07355-5.25669,22.07355-12.35208V580.80046c0-6.8337-2.89-12.09039-22.07355-12.09039-18.92182,0-22.07583,5.25669-22.07583,12.09039v70.69226C1392.81216,658.58811,1395.96617,663.8448,1414.888,663.8448Z" style="fill: #fff"/>
      <path d="M1538.64979,710.88537c-6.56973,0-9.45977-2.89-9.45977-9.45977V670.67737c0-6.56973,2.89-9.462,9.45977-9.462h70.69226c4.46932,0,6.8337-3.41571,6.8337-7.62106,0-6.04406-2.36438-8.40843-6.8337-8.9341l-39.41836-5.51839c-24.70417-3.67969-40.73367-14.19079-40.73367-43.626V567.92157c0-29.95859,20.23485-46.25206,54.39879-46.25206h73.58458c6.56973,0,9.45977,2.89232,9.45977,9.462v31.27163c0,6.56972-2.89,9.462-9.45977,9.462H1595.9409c-4.467,0-7.0954,3.154-7.0954,7.88276,0,4.731,2.62835,7.885,7.0954,8.41071l39.15666,5.25441c24.7019,3.67969,40.99537,14.19307,40.99537,43.626v27.59422c0,29.95859-20.49655,46.25206-54.39879,46.25206Z" style="fill: #fff"/>
      <g>
        <path d="M527.94866,506.73944V681.85861a33.4175,33.4175,0,0,1-33.42278,33.42278h-217.196a33.42581,33.42581,0,0,1-33.42278-33.42278V506.73944a142.0208,142.0208,0,1,1,284.04159,0Z" style="fill: url(#Dégradé_sans_nom_17)"/>
        <circle cx="385.92822" cy="506.73307" r="87.71581" style="fill: #fff"/>
        <circle cx="385.92822" cy="506.73307" r="33.41599" style="fill: #160424"/>
      </g>
      <path d="M814.36078,470.722c-3.65927,0-5.26843-1.60917-5.26843-5.26716v-94.819c0-3.658,1.60916-5.26843,5.26843-5.26843h67.894c3.658,0,5.26843,1.61043,5.26843,5.26843V387.755c0,3.658-1.61043,5.26842-5.26843,5.26842H841.86988V404.2901h28.53288c3.658,0,5.26843,1.60917,5.26843,5.26843V425.2143c0,3.658-1.61043,5.26843-5.26843,5.26843H841.86988v12.58316h40.38494c3.658,0,5.26843,1.61043,5.26843,5.26843v17.12049c0,3.658-1.61043,5.26716-5.26843,5.26716Z" style="fill: #fff"/>
    </g>
  </g>
</svg>
