<svg width="18" height="14" viewBox="0 0 18 14" fill="none" xmlns="http://www.w3.org/2000/svg">
<path d="M15.2477 1.16698C14.0672 0.614652 12.8184 0.222201 11.5342 0C11.3742 0.289195 11.1874 0.678164 11.0585 0.987609C9.67387 0.779414 8.30201 0.779414 6.94287 0.987609C6.81405 0.678234 6.62294 0.289195 6.46151 0C5.17605 0.222304 3.92615 0.615754 2.74514 1.16986C0.395011 4.72127 -0.242091 8.18437 0.0764248 11.5985C1.63518 12.7625 3.14578 13.4696 4.63092 13.9324C5.00001 13.4248 5.32629 12.8874 5.60637 12.3258C5.07313 12.1228 4.55908 11.8726 4.07032 11.5782C4.19894 11.4829 4.32453 11.3835 4.44691 11.2803C7.40862 12.6656 10.6267 12.6656 13.5531 11.2803C13.676 11.3828 13.8015 11.4822 13.9296 11.5782C13.4401 11.8734 12.9251 12.1241 12.3908 12.3273C12.6724 12.8912 12.9981 13.4291 13.3662 13.9338C14.8527 13.4711 16.3647 12.764 17.9235 11.5985C18.2973 7.64072 17.2851 4.20933 15.2477 1.16691V1.16698ZM6.00989 9.49887C5.12079 9.49887 4.39165 8.66883 4.39165 7.65809C4.39165 6.64734 5.10525 5.8159 6.00989 5.8159C6.9146 5.8159 7.64367 6.64587 7.62813 7.65809C7.62954 8.66883 6.9146 9.49887 6.00989 9.49887ZM11.99 9.49887C11.1009 9.49887 10.3719 8.66883 10.3719 7.65809C10.3719 6.64734 11.0854 5.8159 11.99 5.8159C12.8948 5.8159 13.6238 6.64587 13.6083 7.65809C13.6083 8.66883 12.8948 9.49887 11.99 9.49887Z" fill="#5865F2"/>
</svg>
