<svg width="18" height="14" viewBox="0 0 18 14" fill="none" xmlns="http://www.w3.org/2000/svg">
<path d="M17.7321 1.70281C17.1059 1.98031 16.4331 2.16781 15.7259 2.25256C16.4556 1.8159 17.0016 1.12866 17.2619 0.319058C16.5763 0.7263 15.8259 1.01295 15.0434 1.16656C14.5172 0.604707 13.8202 0.232302 13.0606 0.107163C12.3011 -0.0179759 11.5215 0.111151 10.8428 0.474497C10.1642 0.837843 9.62447 1.41508 9.3075 2.11659C8.99054 2.81809 8.91404 3.60462 9.08989 4.35406C7.70065 4.2843 6.34161 3.92322 5.10096 3.29424C3.8603 2.66525 2.76577 1.78243 1.88839 0.703058C1.58839 1.22056 1.41589 1.82056 1.41589 2.45956C1.41555 3.0348 1.55721 3.60124 1.8283 4.10861C2.09938 4.61597 2.49151 5.04859 2.96989 5.36806C2.41509 5.3504 1.87254 5.20049 1.38739 4.93081V4.97581C1.38733 5.78261 1.66641 6.56459 2.17727 7.18905C2.68814 7.81352 3.39932 8.242 4.19014 8.40181C3.67547 8.54109 3.13589 8.56161 2.61214 8.46181C2.83526 9.15602 3.26988 9.76308 3.85516 10.198C4.44044 10.6329 5.14708 10.8739 5.87614 10.8873C4.63851 11.8589 3.11005 12.3859 1.53664 12.3836C1.25792 12.3836 0.979444 12.3674 0.702637 12.3348C2.29974 13.3617 4.15889 13.9067 6.05764 13.9046C12.4851 13.9046 15.9989 8.58106 15.9989 3.96406C15.9989 3.81406 15.9951 3.66256 15.9884 3.51256C16.6719 3.01829 17.2618 2.40623 17.7306 1.70506L17.7321 1.70281Z" fill="#006BCE"/>
</svg>
